<?xml version="1.0" encoding="utf-8"?>
<!-- Generator: Adobe Illustrator 25.4.1, SVG Export Plug-In . SVG Version: 6.00 Build 0)  -->
<svg version="1.1" id="Layer_1" xmlns="http://www.w3.org/2000/svg" xmlns:xlink="http://www.w3.org/1999/xlink" x="0px" y="0px"
	 viewBox="0 0 300 120" style="enable-background:new 0 0 300 120;" xml:space="preserve">
<style type="text/css">
	.st0{clip-path:url(#SVGID_00000113329126938003048880000015374574022432023706_);fill:#106A51;}
	.st1{clip-path:url(#SVGID_00000112610758124464596700000017114374251046576030_);}
	.st2{fill:#043020;}
	.st3{clip-path:url(#SVGID_00000036235464113234150590000008924484213008705453_);}
	.st4{fill:#05422E;}
	.st5{clip-path:url(#SVGID_00000077309633866910444990000009455144992802370733_);}
	.st6{fill:#063827;}
	.st7{clip-path:url(#SVGID_00000092436233429903998940000006737435926327142836_);}
	.st8{fill:#094F39;}
</style>
<g>
	<g>
		<defs>
			<rect id="SVGID_1_" y="0" width="300" height="120"/>
		</defs>
		<clipPath id="SVGID_00000003796521880435639120000001363757341366978998_">
			<use xlink:href="#SVGID_1_"  style="overflow:visible;"/>
		</clipPath>
		
			<rect y="0" style="clip-path:url(#SVGID_00000003796521880435639120000001363757341366978998_);fill:#106A51;" width="300" height="120"/>
	</g>
	<g>
		<defs>
			<rect id="SVGID_00000044147178812964800150000017595050432178738834_" y="0" width="300" height="120"/>
		</defs>
		<clipPath id="SVGID_00000136385889177672552460000003478094432973481088_">
			<use xlink:href="#SVGID_00000044147178812964800150000017595050432178738834_"  style="overflow:visible;"/>
		</clipPath>
		<g id="Layer_1-2" style="clip-path:url(#SVGID_00000136385889177672552460000003478094432973481088_);">
			<path class="st2" d="M49.4,148.9C68.1,107.7,116.3,76,116.3,76c-25.9,20.6-39.2,48.1-46,71.6c15-0.8,31.8-1.2,49.8-1.2
				c17.6-44.9,63.9-76.9,63.9-76.9c-24.9,20.8-39.7,52.4-48.1,77c19,0.4,39.3,1.4,60.4,3.2c26.1-41.2,77.3-65.6,77.3-65.6
				c-27.9,16.4-48.2,44.4-61.2,67.1c39.7,4.3,81.9,11.7,124.3,24c22.1-8.5,39.5-11.8,39.5-11.8c-11.5,3.2-22.5,8-32.8,13.8
				c31.8,9.5,63.5,21.7,94.3,37.4v-17.7c0,0-173.6-266.7-358.4-148.3c-37.1,23.7-54.7,67-59.9,103C27.9,150.7,38,149.7,49.4,148.9z"
				/>
		</g>
	</g>
	<g>
		<defs>
			<rect id="SVGID_00000101098742864901230780000007286818826252728971_" y="0" width="300" height="120"/>
		</defs>
		<clipPath id="SVGID_00000127034637214027673130000017599671317401114295_">
			<use xlink:href="#SVGID_00000101098742864901230780000007286818826252728971_"  style="overflow:visible;"/>
		</clipPath>
		
			<g id="Layer_1-2_00000173839496121662691870000009923180266337753220_" style="clip-path:url(#SVGID_00000127034637214027673130000017599671317401114295_);">
			<path class="st4" d="M131.3,17.1c-25.8-3.5-42.2,1-42.2,1s55.7-98.3,162.4-41.5C352.2,30.2,339.9,152,339.9,152l-11.6,18.2
				c0,0-43.5-65.6-112.4-116.8c-5.2-3.9-10.4-7.4-15.5-10.5c9.7-11.4,26.4-25.7,54.1-36.3c0,0-38.2,4.5-68,28.4
				c-16.2-8.4-31.3-13.3-44.5-16.1c12-15.5,26.7-28.6,43.2-39C185.4-20.1,157.1-11.1,131.3,17.1z"/>
		</g>
	</g>
	<g>
		<defs>
			<rect id="SVGID_00000098936996097443377520000003072674408393162141_" y="0" width="300" height="120"/>
		</defs>
		<clipPath id="SVGID_00000125595109410500034030000006899279166466342062_">
			<use xlink:href="#SVGID_00000098936996097443377520000003072674408393162141_"  style="overflow:visible;"/>
		</clipPath>
		
			<g id="Layer_1-2_00000016049651201034997310000007602295891261333130_" style="clip-path:url(#SVGID_00000125595109410500034030000006899279166466342062_);">
			<path class="st6" d="M35.5,124.4c-8.4-4.2-17.7-7.5-27.4-8.9c10.9,0.9,21.8,3.1,32.3,6.4c20-13.2,61.7-27.9,83-31.2
				c-8.7-11.3-21-23.7-36.6-30.3c0,0,27.9,9,45.7,28c11.5-2.7,23.9-5.2,33.6-6.5c-6.2-8.6-15.5-18.3-32.3-26.3
				c0,0,20.7,6.5,38.5,25.1c7.4-0.7,19-0.9,25.1-0.9c-4.1-11.1-25.2-42.5-58.3-49.1C-4,2-45.9,172.2-45.9,172.2l2.8,10.5
				C-30.7,169.7-5.2,146,35.5,124.4z"/>
		</g>
	</g>
	<g>
		<defs>
			<rect id="SVGID_00000106853197246374221330000012683019064186417307_" y="0" width="300" height="120"/>
		</defs>
		<clipPath id="SVGID_00000176042714326910901150000001105611241582570914_">
			<use xlink:href="#SVGID_00000106853197246374221330000012683019064186417307_"  style="overflow:visible;"/>
		</clipPath>
		
			<g id="Layer_1-2_00000130606384887079175230000014891025375759954878_" style="clip-path:url(#SVGID_00000176042714326910901150000001105611241582570914_);">
			<path class="st8" d="M12,34.8c0,0,17.8-3.7,37.8,3.9c19.3-16.2,34.5-20,34.5-20S28.9-18.8-21.5,47s-21.9,134.1-21.9,134.1
				l10.3,7.1c0,0,14.5-53.5,47-106.7c10-16.5,20.6-28.8,30.4-37.9C34.2,38.5,23.2,35.5,12,34.8z"/>
		</g>
	</g>
</g>
</svg>
