<?xml version="1.0" encoding="utf-8"?>
<!-- Generator: Adobe Illustrator 25.4.1, SVG Export Plug-In . SVG Version: 6.00 Build 0)  -->
<svg version="1.1" id="Layer_1" xmlns="http://www.w3.org/2000/svg" xmlns:xlink="http://www.w3.org/1999/xlink" x="0px" y="0px"
	 viewBox="0 0 71.7 71.7" style="enable-background:new 0 0 71.7 71.7;" xml:space="preserve">
<style type="text/css">
	.st0{fill:#1D1D1B;}
	.st1{fill:#FFBB12;}
</style>
<g id="Layer_1-2">
	<rect x="0" y="0" class="st0" width="71.7" height="71.7"/>
	<circle class="st0" cx="35.9" cy="35.9" r="35.9"/>
	<path class="st1" d="M18.6,31.9c0.1-0.1,0.2-0.1,0.3-0.1c0.7,0.1,1.3,0.1,2,0.1c4.1,0.8,3.1,1.5,10.6,2.5c6.9,1,13.2-2.1,15.7-3.2
		c4-1.8,4.7-3.8,5.4-3.5c1.2,0.5,0.9,0.7,0.9,1.3s-2,2-2.9,2.2c-0.9,0.3,1.3,4-1.6,6.8c-2.9,2.7-9.5,4.6-16.4,4.6
		c-10.1,0-13.2-5.7-13.7-6.7c-0.5-1,0.1-2.6-0.3-2.7C17.9,33,18.4,32.2,18.6,31.9z"/>
</g>
</svg>
